<?xml version="1.0" encoding="UTF-8" standalone="no"?>
<!-- Created with Inkscape (http://www.inkscape.org/) -->

<svg
   version="1.1"
   id="svg1"
   width="1338.6667"
   height="458.66666"
   viewBox="0 0 1338.6667 458.66666"
   xmlns="http://www.w3.org/2000/svg"
   xmlns:svg="http://www.w3.org/2000/svg">
  <defs
     id="defs1">
    <clipPath
       clipPathUnits="userSpaceOnUse"
       id="clipPath1">
      <rect
         
         id="rect2"
         width="906.04529"
         height="509.07614"
         x="477.83319"
         y="-18.378201" />
    </clipPath>
    <clipPath
       clipPathUnits="userSpaceOnUse"
       id="clipPath3">
      <rect
         
         id="rect4"
         width="738.41852"
         height="242.36436"
         x="516.63861"
         y="110.13474" />
    </clipPath>
    <clipPath
       clipPathUnits="userSpaceOnUse"
       id="clipPath5">
      <rect
         
         id="rect6"
         width="744.47046"
         height="524.07471"
         x="301.64764"
         y="-31.485107" />
    </clipPath>
    <clipPath
       clipPathUnits="userSpaceOnUse"
       id="clipPath7">
      <rect
         
         id="rect8"
         width="739.92859"
         height="243.87442"
         x="298.87076"
         y="108.31419" />
    </clipPath>
  </defs>
  <g
     id="g1">
    <path
       d="M 18.818848,417.35289 C -2.0113973,412.92127 -9.7156183,410.21564 -27.847822,400.96407 -103.41992,362.40505 -145.87695,280.23962 -132.52246,198.39135 c 4.40713,-27.01079 14.33346,-53.37937 28.3327,-75.2637 22.347604,-34.93492 60.298768,-64.091466 101.032932,-77.620049 20.794171,-6.906136 31.939286,-8.961541 52.954495,-9.765976 31.391102,-1.20161 55.449833,3.292384 83.511743,15.599377 60.18934,26.396989 101.94794,78.926898 113.81361,143.170958 3.12679,16.92933 3.01036,50.52284 -0.23396,67.50444 -6.38934,33.4434 -19.03949,60.41149 -41.59162,88.66666 -25.97991,32.54977 -67.50625,57.84703 -110.478588,67.302 -18.083635,3.97884 -55.801211,3.6651 -76.000004,-0.63217 z m 77.185972,-13.2808 c 24.61054,-4.98307 42.66159,-12.55533 64.41989,-27.02359 43.58033,-28.97889 73.78296,-80.72915 77.74038,-133.20311 C 242.3156,188.81124 224.32337,139.2703 186.15219,100.62977 161.29597,75.467915 133.68465,59.88212 98.287851,51.03288 88.352654,48.54907 82.895969,48.15564 57.485517,48.09101 28.735239,48.01789 27.826586,48.10061 11.77164,52.253818 c -18.6740653,4.830718 -40.738147,14.822271 -57.089169,25.852401 -13.747355,9.273739 -38.135557,33.757951 -47.058257,47.243511 -43.580834,65.86708 -42.027954,148.53728 3.944646,210 30.308869,40.5212 72.767298,65.19728 123.916655,72.01814 14.246432,1.89978 42.44309,0.36424 60.519305,-3.29578 z M 30.229584,401.23103 C -36.56534,391.51009 -96.78036,335.22147 -112.27739,268.0164 c -7.03416,-30.50462 -6.68649,-54.78127 1.21589,-84.90153 8.92795,-34.02927 31.271738,-68.39388 58.809087,-90.448023 3.444143,-2.758349 6.144143,-5.233115 6,-5.49948 -0.144142,-0.266364 -0.05928,-0.381506 0.188575,-0.25587 0.247858,0.125637 4.147859,-2.17455 8.666667,-5.111526 28.817787,-18.729967 62.455006,-28.49145 97.549354,-28.308713 20.931644,0.108991 33.841719,2.504919 55.815027,10.35848 42.42612,15.163682 79.87949,48.957932 98.84557,89.188582 12.27423,26.03597 17.06272,46.70828 17.05894,73.64474 -0.007,46.33823 -16.09307,86.76451 -48.02257,120.68306 -14.98465,15.91812 -30.85727,27.70837 -50.36363,37.4103 -33.17878,16.50222 -66.4726,21.80784 -103.255936,16.45461 z m 57.280549,-6.0026 c 26.595407,-4.85783 42.620057,-11.36364 67.975387,-27.59715 11.16777,-7.15006 35.89655,-32.65223 44.58083,-45.9751 28.81522,-44.20644 35.75733,-98.12117 19.09607,-148.30645 -7.82987,-23.58432 -20.3322,-43.90307 -38.70479,-62.9029 C 159.1846,88.447539 139.46866,75.68178 112.71306,66.583279 94.180191,60.281 79.445854,58.024921 56.81885,58.024921 c -22.966961,0 -37.4688,2.272053 -56.26839012,8.815761 C -47.935724,83.717615 -89.687793,126.47149 -104.9583,174.88104 c -13.05273,41.37891 -9.90963,90.48178 8.095332,126.46869 12.792292,25.56823 37.622221,54.22302 58.922781,67.99937 19.126821,12.37047 41.5308695,21.36714 62.759035,25.20181 6.233334,1.12599 12.533334,2.29676 14.000001,2.6017 8.160949,1.6968 34.583953,0.65261 48.691284,-1.92418 z M -36.196816,340.90761 c -1.086455,-0.68969 -1.389983,-2.52966 -0.856953,-5.19481 0.967845,-4.83923 3.082425,-5.65234 14.766674,-5.6782 8.051962,-0.0178 8.246126,-0.1035 9.105941,-4.0182 l 0.878547,-4 h 9.8940604 9.8940602 v -4 -4 H 28.152182 c 23.806792,0 22.20812,1.3085 17.919102,-14.66667 -3.922775,-14.61104 -4.774727,-40.78391 -1.909657,-58.66667 1.233649,-7.7 2.176607,-15.5 2.095461,-17.33333 -0.08115,-1.83333 -0.223649,-4.99139 -0.316675,-7.0179 -0.09302,-2.02651 0.816567,-4.77375 2.021316,-6.10498 1.822644,-2.014 2.190454,-5.71215 2.190454,-22.02395 0,-17.41613 -0.260358,-19.71044 -2.333334,-20.56168 -1.283333,-0.52698 -9.533334,-0.94356 -18.333334,-0.92572 -12.745358,0.0258 -17.947731,0.63824 -25.5751486,3.01058 -17.0050534,5.28906 -30.5153824,7.30152 -38.0990194,5.67512 -3.693236,-0.79206 -6.840212,-1.27766 -6.99328,-1.07912 -0.153067,0.19854 3.26473,9.36099 7.595105,20.36099 4.330376,11 11.458862,29.21876 15.841081,40.48614 10.694558,27.49741 9.2994491,25.51385 17.94483852,25.51385 7.87199648,0 8.64027978,0.76147 4.79108438,4.74859 -13.8624885,14.3592 -29.9642359,21.0623 -50.1713319,20.88614 -18.577339,-0.16194 -32.470765,-5.78961 -46.405708,-18.79708 l -6.610985,-6.17098 8.265162,-0.66667 8.265161,-0.66666 6.682569,-16 c 3.675412,-8.8 11.061618,-26.8 16.413789,-40 5.352172,-13.2 10.534074,-25.72312 11.515339,-27.82916 1.666106,-3.57587 1.543783,-4.02079 -1.849276,-6.72632 -3.346412,-2.66834 -3.56592,-3.41902 -2.779135,-9.50418 1.512844,-11.70064 9.130749,-16.10055 15.993726,-9.23758 2.47438,2.47438 3.255196,4.48438 2.939394,7.56666 l -0.430036,4.19723 9.177945,-0.33167 c 10.394821,-0.37564 24.17422778,-4.19281 29.0879503,-8.05794 6.0485627,-4.7578 14.0627037,-5.8635 25.4502577,-3.51134 5.594287,1.15553 10.416402,2.10097 10.715812,2.10097 0.299411,0 -0.297522,-3.64426 -1.326517,-8.09835 -2.916155,-12.62282 0.772276,-26.44604 9.343646,-35.01741 2.518939,-2.51894 2.524438,-3.3042 0.12072,-17.23594 -1.047011,-6.068382 0.933761,-8.981635 6.106772,-8.981635 2.514827,0 4.419134,1.122882 6.002494,3.539394 2.153853,3.287195 2.16478,3.800637 0.153346,7.205722 -3.052024,5.166666 -2.754445,12.184199 0.68064,16.050869 1.565516,1.76221 4.338891,6.41821 6.163056,10.34668 2.886541,6.21636 3.238212,8.49785 2.711729,17.59252 -0.332714,5.74743 -1.379555,11.38323 -2.326315,12.52401 -2.144722,2.58423 -1.459629,2.58002 11.353336,-0.0698 12.04652,-2.49127 15.619296,-1.8073 30.376784,5.81529 8.00365,4.13408 10.64088,4.79256 21.46083,5.35852 l 12.33585,0.64524 -0.60227,-4.10349 c -0.47217,-3.21713 0.19035,-4.83807 3.0672,-7.50425 4.22463,-3.91524 5.97301,-4.14514 11.15297,-1.46648 3.24531,1.67822 3.84358,2.93333 4.51938,9.48124 0.45972,4.45422 0.19513,8.48177 -0.64565,9.82808 -1.11612,1.78719 0.23021,6.44646 6.21804,21.51876 4.20344,10.58071 9.34025,23.73765 11.41514,29.23765 4.67564,12.39392 14.04298,35.09677 15.95608,38.67143 1.18507,2.21431 2.81794,2.66854 9.71103,2.70139 l 8.28643,0.0395 -7.48143,6.98112 c -13.43971,12.54096 -28.93884,18.56118 -47.85191,18.58681 -16.84221,0.0228 -31.48782,-5.84306 -44.71277,-17.90845 l -7.75145,-7.07179 8.36782,-0.66667 8.36782,-0.66666 15.64327,-38.66667 c 8.60379,-21.26666 16.6506,-41.00879 17.88179,-43.87138 1.23119,-2.8626 1.98641,-5.45684 1.67826,-5.76499 -0.30814,-0.30814 -2.56602,0.50883 -5.0175,1.8155 -7.32575,3.90471 -22.87966,3.09997 -39.79058,-2.0587 -15.209568,-4.63968 -36.073619,-6.68552 -45.999999,-4.51058 l -5.333334,1.16858 -0.771367,19.27745 c -0.697791,17.43872 -0.535348,19.58517 1.703075,22.50355 1.836816,2.39478 2.400736,5.14342 2.188413,10.66667 -0.157315,4.09231 0.726302,11.82979 1.963593,17.1944 2.852085,12.36599 2.908206,38.32031 0.114413,52.91283 -1.123195,5.86667 -2.3786,13.51667 -2.789789,17 l -0.747616,6.33334 h 20.085162 20.085159 l 0.41781,4.33333 c 0.45112,4.67871 -0.32126,4.40176 13.41782,4.81124 5.81633,0.17335 6.33333,0.46087 6.33333,3.52209 0,3.26184 0.21638,3.33334 10.08766,3.33334 12.06958,0 15.24568,1.36622 15.24568,6.55807 0,2.81112 -0.77928,4.00641 -3,4.60154 -4.54327,1.21755 -180.082646,0.9587 -182.015676,-0.2684 z m -9.691552,-118.55788 c -0.02352,-22.23537 -0.52478,-37.49344 -1.193631,-36.33333 -0.634197,1.1 -5.074412,11.93896 -9.867143,24.08658 -4.792732,12.14762 -10.306493,25.64762 -12.252804,30 -1.946311,4.35238 -4.679096,10.76342 -6.072857,14.24675 l -2.53411,6.33333 h 15.980545 15.980545 z m 33.37388,37.605 c 0,-0.84504 -21.032408,-56.18479 -25.739428,-67.7247 l -3.175986,-7.78637 -0.868729,13.1197 c -0.477801,7.21584 -0.871833,24.3697 -0.875627,38.1197 l -0.0069,25 h 15.333334 c 8.433334,0 15.333334,-0.32775 15.333334,-0.72833 z m 169.864768,-19.605 c 1.33322,-33.37808 1.5337,-58.33514 0.46858,-58.33421 -0.55,4.8e-4 -1,0.61276 -1,1.36061 0,0.74785 -6.66028,17.69785 -14.80062,37.66667 -8.14034,19.96881 -15.10453,37.05693 -15.47598,37.9736 -0.51702,1.27587 2.92044,1.66666 14.66023,1.66666 h 15.33561 z m 34.13524,18.93202 c 0,-0.77073 -2.31468,-6.92073 -5.14374,-13.66667 -2.82906,-6.74594 -6.42493,-15.56535 -7.99083,-19.59868 -10.04108,-25.8631 -16.51167,-42.07515 -16.98487,-42.55556 -0.30097,-0.30555 -0.54722,16.94445 -0.54722,38.33334 v 38.88888 h 15.33333 c 9.82926,0 15.33333,-0.50301 15.33333,-1.40131 z m 409.31256,88.27192 c -5.74072,-3.04309 -14.61034,-13.83048 -23.05963,-28.04555 -5.23729,-8.8112 -7.19387,-10.99306 -10.66666,-11.8948 l -4.25291,-1.1043 -0.3772,15.26689 c -0.4174,16.89383 0.49102,19.32148 7.8335,20.93416 4.2475,0.93291 6.31124,3.13538 4.17476,4.4554 -0.75749,0.46801 -10.58436,0.82138 -21.83749,0.78527 -16.38433,-0.0526 -20.46024,-0.42887 -20.46024,-1.88889 0,-1.00278 1.8,-2.4038 4,-3.11337 7.64269,-2.46504 7.40454,-1.12757 7.02144,-39.43461 l -0.35477,-35.47375 -4.66667,-2.20283 c -2.56666,-1.21156 -4.66666,-3.0169 -4.66666,-4.01186 0,-1.45972 4.89177,-1.80883 25.33333,-1.80798 23.62179,9.8e-4 25.70767,0.20115 30.87397,2.9628 6.81351,3.64216 10.5518,8.22382 11.69885,14.33813 1.79028,9.54303 -2.59136,17.43396 -13.72675,24.7206 l -3.0909,2.02259 7.57951,10.64408 c 14.0298,19.70239 21.74896,25.97741 31.95583,25.97741 3.7748,0 4.70949,0.51425 4.70949,2.59106 0,4.39729 -5.09559,6.74228 -14.65081,6.74228 -5.91754,0 -10.21871,-0.79227 -13.36999,-2.46273 z m -26.68589,-47.24302 c 8.27704,-4.18823 11.75434,-16.68142 7.48624,-26.89642 -2.28314,-5.46433 -5.55967,-7.39783 -12.53639,-7.39783 -4.33339,0 -5.40779,0.53105 -6.06944,3 -1.09752,4.09537 -1.05687,31.00573 0.0485,32.11111 1.43381,1.4338 7.50905,0.98555 11.07109,-0.81686 z m 92.7067,47.91411 c -14.47317,-3.77527 -26.40102,-12.65316 -32.41133,-24.12376 -3.05701,-5.83424 -3.54098,-8.38123 -3.56309,-18.75127 -0.0215,-10.07932 0.49881,-13.06704 3.25073,-18.66667 9.7842,-19.90897 34.59279,-31.50123 58.8445,-27.49615 5.19978,0.85873 11.41578,2.38095 13.81333,3.38271 4.2,1.75487 4.39391,2.17372 5.30994,11.47 1.42415,14.45286 -2.10913,16.2088 -7.48232,3.7185 -2.45127,-5.69815 -3.88021,-7.2016 -9.00437,-9.47393 -7.28401,-3.23013 -18.71245,-3.5221 -25.46435,-0.65057 -6.34984,2.70053 -13.14113,9.73243 -16.45162,17.03448 -3.68864,8.13616 -3.85481,25.74425 -0.33841,35.858 3.63429,10.4528 12.74996,19.41671 21.64517,21.28484 14.9617,3.14219 23.05751,-0.66768 34.06978,-16.03315 1.70378,-2.37728 2.59064,-2.73334 3.82552,-1.53588 1.25433,1.21633 1.24097,3.12064 -0.0608,8.66667 -0.91761,3.9093 -2.19941,8.13763 -2.84843,9.3963 -2.79964,5.42938 -30.46081,9.22569 -43.13423,5.91988 z m 93.66123,0.34407 c -6.80532,-1.60389 -17.28485,-7.05144 -22.68347,-11.79148 -11.86073,-10.41386 -16.39526,-31.05238 -10.34621,-47.08983 8.10377,-21.48502 31.61979,-34.19771 56.2484,-30.40773 16.63271,2.55953 19.49363,3.65306 20.30447,7.76091 0.6873,3.48198 1.21783,12.45301 0.94478,15.9757 -0.29424,3.79586 -4.20012,1.23057 -7.57913,-4.97779 -4.94252,-9.08104 -11.96728,-12.53978 -23.92239,-11.77853 -11.43054,0.72784 -18.36563,5.47216 -23.94429,16.38036 -3.68091,7.19745 -4.01672,8.97667 -4.01672,21.28168 0,14.80553 2.60598,22.99207 9.73815,30.59182 6.82688,7.27445 18.79987,9.70594 26.97541,5.4782 4.0746,-2.10705 4.74564,-3.78612 5.70797,-14.28235 0.72573,-7.91556 -1.13243,-10.58531 -8.63957,-12.41315 -3.5197,-0.85697 -5.78196,-2.16536 -5.78196,-3.34402 0,-1.58855 3.53136,-2.00248 19.66667,-2.3052 17.04119,-0.31972 19.66667,-0.0928 19.66667,1.69967 0,1.13775 -1.46352,2.62507 -3.25227,3.30515 -1.78874,0.68008 -3.93927,2.52019 -4.77894,4.08912 -1.59689,2.98383 -1.2297,16.29175 0.55725,20.19571 0.81822,1.7876 -0.36573,2.96215 -5.72162,5.67619 -12.51021,6.3394 -27.70523,8.6513 -39.1432,5.95557 z M 516.86275,201.29729 c -21.87214,-6.12423 -34.55585,-23.95579 -33.08171,-46.50838 0.82887,-12.68066 5.61352,-22.59389 15.08153,-31.24711 9.19346,-8.40231 17.62064,-11.41418 31.95631,-11.42118 13.34702,-0.007 23.96786,4.37888 33.08505,13.661 9.17834,9.34436 12.24842,17.11676 12.20604,30.90145 -0.0413,13.4347 -3.6486,22.77461 -12.50833,32.38628 -10.58399,11.48227 -30.65157,16.7324 -46.73889,12.22794 z m 26.65764,-7.96558 c 15.28472,-7.90403 17.62792,-45.57616 4.00459,-64.38261 -5.0657,-6.99299 -10.86439,-9.98032 -19.37277,-9.98032 -11.80842,0 -18.98883,5.74562 -22.66947,18.13966 -5.26296,17.72232 -0.0465,42.80244 11.10424,53.38769 6.58241,6.2486 18.00734,7.45143 26.93341,2.83558 z m 77.33082,7.88057 c -21.04449,-5.65517 -33.84513,-21.51429 -33.78923,-41.86255 0.0433,-15.74769 5.87918,-27.40868 18.60708,-37.17959 12.2327,-9.39076 30.01448,-12.44339 48.64115,-8.35031 11.29729,2.4825 12.25695,3.58258 12.39281,14.2063 0.13737,10.7424 -1.86204,12.52887 -5.68277,5.07751 -5.06877,-9.88533 -11.66687,-13.77385 -23.28816,-13.72462 -18.82169,0.0797 -30.61967,14.95747 -30.45132,38.40037 0.16231,22.60144 11.32824,37.57034 28.02529,37.57034 11.94057,0 15.51914,-4.73984 14.59935,-19.3369 l -0.41986,-6.6631 -6.66666,-2.20604 c -3.83612,-1.26939 -6.85267,-3.12464 -7.10475,-4.36957 -0.39097,-1.9309 1.6761,-2.1238 19.22386,-1.79396 14.44762,0.27156 19.81126,0.81885 20.225,2.06368 0.32005,0.96292 -1.19174,2.30583 -3.50271,3.11144 -4.37693,1.5258 -4.88382,2.51492 -6.25054,12.19688 -0.67064,4.7508 -0.35609,7.15729 1.25738,9.61976 1.18347,1.80619 2.15176,3.64273 2.15176,4.08119 0,1.63382 -17.01031,8.43509 -24.6105,9.84006 -10.07773,1.86297 -14.35471,1.73829 -23.35718,-0.68089 z m 294.29559,0.7709 c -13.57311,-3.4186 -26.51352,-14.08718 -32.02083,-26.39922 -3.88804,-8.69203 -3.79106,-24.71213 0.21247,-35.09702 10.60153,-27.49966 45.40882,-37.37806 70.8138,-20.09714 7.89471,5.37013 15.10047,14.84036 17.28999,22.72352 0.74899,2.69669 1.36515,8.94664 1.36924,13.88878 0.0164,19.83327 -11.56935,36.74942 -29.50302,43.07679 -7.15933,2.52596 -21.7706,3.51397 -28.16165,1.90429 z m 20.26112,-6.61118 c 2.51428,-0.72108 6.57676,-3.25472 9.02773,-5.6303 12.44237,-12.05961 11.14605,-47.4855 -2.29642,-62.75696 -6.09049,-6.91916 -14.27415,-9.67525 -22.9312,-7.72277 -12.71,2.86657 -18.86994,13.53931 -18.90472,32.75443 -0.0397,21.92322 7.61508,38.3817 19.84893,42.67706 6.45358,2.26588 9.28225,2.3917 15.25568,0.67854 z m 58.67889,6.0081 c -9.64512,-3.10852 -12.36852,-6.96452 -12.49503,-17.6914 -0.0943,-7.99498 0.178,-9.00563 2.42629,-9.00563 1.73491,0 3.08392,1.59276 4.2834,5.05738 3.7892,10.94486 10.7667,16.94262 19.71023,16.94262 6.2166,0 11.3322,-4.54491 12.3564,-10.97798 1.3537,-8.50235 -1.4296,-12.58188 -14.1202,-20.69656 -18.88712,-12.07684 -22.76233,-16.84344 -22.76233,-27.99821 0,-17.83937 20.14733,-29.68309 40.45243,-23.78022 8.5713,2.49173 10.1032,4.50981 11.1543,14.69465 0.5746,5.56681 0.2974,7.17645 -1.344,7.80632 -2.3306,0.89435 -3.0238,0.1509 -8.0277,-8.60947 -2.602,-4.55531 -4.8136,-6.64269 -8.2342,-7.77159 -9.3263,-3.07795 -18.00083,2.34403 -18.00083,11.25131 0,5.11925 4.45773,9.67293 18.25663,18.64969 16.343,10.63179 20.1597,17.02566 18.7736,31.45076 -0.7673,7.98564 -5.6235,14.86934 -13.2259,18.74777 -7.0603,3.60194 -21.131,4.53211 -29.20309,1.93056 z m -689.89273,-0.43293 c -1.8903,-1.8903 -0.25985,-4.20538 3.93727,-5.59056 2.5552,-0.84329 5.76589,-2.9572 7.13487,-4.69758 2.54378,-3.23389 18.6226,-42.38702 25.5716,-62.26876 3.40734,-9.74869 4.37305,-11.24986 8.25329,-12.82953 2.41693,-0.98394 5.4586,-2.73976 6.75926,-3.90182 1.40595,-1.25613 2.80175,-1.61201 3.44235,-0.87768 0.59263,0.67934 5.5027,15.03516 10.91127,31.90183 15.86949,49.48909 15.57863,48.8232 22.84586,52.30464 5.30053,2.53927 6.8494,2.75348 10.65236,1.47321 8.17508,-2.75216 7.85701,-1.07135 7.47143,-39.48101 -0.38552,-38.40486 0.1135,-36.0417 -8.23855,-39.01386 -3.01097,-1.07148 -3.52583,-1.74003 -2.291,-2.97487 2.51059,-2.51059 45.70741,-2.77494 54.21182,-0.33176 9.21621,2.64767 14.17036,8.05168 14.93819,16.29464 0.68794,7.38534 -2.66759,13.6184 -9.98667,18.55073 l -4.28133,2.88519 7.21941,3.53212 c 5.70106,2.78927 7.79993,4.73135 9.97972,9.23418 7.63343,15.76856 -2.90208,32.24799 -22.63853,35.41074 -7.59013,1.21631 -94.33786,0.82379 -95.5942,-0.43255 -1.19217,-1.19217 2.48803,-4.78474 4.90146,-4.78474 1.23671,0 3.3886,-0.83361 4.78197,-1.85247 2.46795,-1.80461 2.47212,-2.11247 0.16132,-11.91436 -1.30465,-5.53403 -3.16958,-10.72374 -4.14428,-11.53267 -1.09362,-0.90762 -6.54607,-1.32331 -14.23982,-1.08564 l -12.46762,0.38514 -2.84781,10 c -3.26754,11.47385 -2.69885,13.70609 4.22924,16.60083 4.07694,1.70346 6.34874,4.69001 3.61857,4.75707 -0.55,0.0135 -8.33115,0.23235 -17.29145,0.48632 -8.9603,0.25397 -16.6103,0.14292 -17,-0.24678 z m 143.03836,-9.63162 c 7.65842,-4.6692 10.37264,-15.76288 6.07331,-24.82305 -3.24531,-6.83898 -14.651,-11.59937 -20.40867,-8.51795 -2.52437,1.351 -2.74487,2.68935 -2.74487,16.66019 0,12.03239 0.43567,15.62686 2.09523,17.28642 2.89009,2.89009 9.70298,2.61475 14.985,-0.60561 z m -89.68017,-32.96582 c -0.48896,-2.01666 -2.72134,-9.65138 -4.96085,-16.96603 l -4.07183,-13.29937 -5.8247,15.96604 c -3.20359,8.78131 -5.83625,16.41603 -5.85036,16.96603 -0.0141,0.55 4.83938,1 10.78555,1 h 10.81121 z m 89.54758,-10.39715 c 6.41744,-4.1998 6.92432,-19.51877 0.84694,-25.59614 -2.64559,-2.64559 -4.25647,-3.08146 -10.13669,-2.74275 l -6.99123,0.40271 -0.38073,14.55869 c -0.28046,10.7245 0.0707,14.86273 1.33334,15.71317 2.26157,1.52326 11.60796,0.0991 15.32837,-2.33568 z M 678.9145,201.0009 c -1.92008,-1.92008 -0.38253,-4.23636 3.70832,-5.58646 2.45883,-0.81149 5.68013,-2.80802 7.15844,-4.43674 3.05027,-3.36062 14.43433,-30.41866 23.79943,-56.56738 5.7672,-16.10285 6.65106,-17.72651 10.35198,-19.01666 2.22552,-0.77582 5.14953,-2.4089 6.49781,-3.62908 1.48711,-1.34582 2.91519,-1.73263 3.63038,-0.98334 0.64843,0.67934 6.09932,16.53516 12.11309,35.23516 13.88492,43.17564 15.05238,45.92345 20.6373,48.57367 2.42586,1.15115 5.11397,2.093 5.97358,2.093 0.85961,0 1.36044,1.05 1.11295,2.33333 -0.45166,2.34202 -3.60031,2.46245 -44.07889,1.68585 -3.05667,-0.0586 -0.18938,-3.12809 5,-5.35252 4.44223,-1.90416 6,-3.31312 6,-5.42682 0,-4.72784 -4.13332,-19.16284 -5.7887,-20.21616 -2.71725,-1.72899 -24.4215,-1.18932 -25.85908,0.64298 -2.08356,2.65565 -5.68555,14.45094 -5.68555,18.61824 0,3.26543 0.88881,4.19085 6.21982,6.47599 4.07611,1.74722 5.76795,3.11799 4.90876,3.97719 -1.40033,1.40032 -34.41799,2.8614 -35.69964,1.57975 z m 51.78897,-49.31783 c -1.78326,-5.68334 -3.90804,-12.88334 -4.72173,-16 -0.81368,-3.11667 -1.85819,-5.66592 -2.32114,-5.665 -0.46294,9.2e-4 -3.16997,6.45092 -6.01561,14.33333 -2.84565,7.88242 -5.45984,15.08167 -5.80932,15.99833 -0.4776,1.25273 2.18914,1.66667 10.73734,1.66667 h 11.37277 z m 45.33804,49.11111 c -1.63559,-1.63444 -0.11271,-3.87414 3.11072,-4.57494 7.86517,-1.70994 7.63292,-0.66053 8.06818,-36.45679 0.22083,-18.16169 0.065,-34.36199 -0.34628,-36.00067 -0.51624,-2.05685 -2.41197,-3.47802 -6.12218,-4.58963 -3.70007,-1.10857 -5.2481,-2.26634 -4.96901,-3.71631 0.35541,-1.84641 4.18454,-2.10611 31.05401,-2.10611 30.32645,0 30.72738,0.0369 38.14196,3.51356 9.6808,4.53922 17.09624,11.3126 21.2172,19.38009 2.85263,5.58452 3.28755,8.2103 3.27511,19.77302 -0.0127,11.83117 -0.4128,14.09127 -3.55106,20.06086 -4.73188,9.00099 -13.0245,17.05012 -22.21638,21.56406 l -7.55155,3.70841 h -29.77739 c -16.37756,0 -30.02756,-0.25 -30.33333,-0.55555 z m 60.55657,-10.37916 c 8.84999,-5.47153 12.59177,-13.44711 13.30471,-28.35896 0.77757,-16.26354 -1.98003,-25.31927 -10.21447,-33.54349 -6.85446,-6.84593 -12.8209,-9.1436 -23.77419,-9.1554 -11.5029,-0.0124 -11.28793,-0.74071 -10.82713,36.68244 0.4892,39.73004 0.52533,39.80649 18.25076,38.61441 4.93357,-0.33179 9.08938,-1.66031 13.26032,-4.239 z"
       id="path4"
       clip-path="url(#clipPath7)"
       transform="translate(1.509242,-0.91807556)" />
  </g>
</svg>
