<?xml version="1.0" encoding="UTF-8" standalone="no"?>
<!-- Created with Inkscape (http://www.inkscape.org/) -->

<svg
   version="1.1"
   id="svg1"
   width="397.33334"
   height="400"
   viewBox="0 0 397.33334 400"
   xmlns="http://www.w3.org/2000/svg"
   xmlns:svg="http://www.w3.org/2000/svg">
  <defs
     id="defs1" />
  <g
     id="g1">
    <path
       d="M 159.94246,388.69935 C 17.100285,358.30982 -41.886515,187.51701 51.647305,75.137131 147.19104,-39.657629 334.64426,-3.0837713 381.33914,139.46307 426.98232,278.79932 302.43005,419.01345 159.94246,388.69935 Z m 77.18597,-13.2808 C 365.21107,349.48475 422.28845,198.82828 344.60913,91.72187 288.2982,14.078804 176.42006,-4.9281986 95.806075,49.452665 82.058725,58.726405 57.670525,83.210618 48.747825,96.696181 -42.396155,234.44911 75.059965,408.23371 237.12843,375.41855 Z M 171.35319,372.5775 C 112.65437,364.03481 58.594045,319.68239 35.450735,261.07978 8.4728357,192.76735 30.759025,110.55425 88.871195,64.013293 c 3.44414,-2.758349 6.14414,-5.233115 6,-5.499479 -0.14414,-0.266365 -0.0593,-0.381506 0.18857,-0.25587 0.24786,0.125636 4.14786,-2.174551 8.666675,-5.111526 95.59477,-62.1313156 224.56375,-16.63993 260.83701,92.005362 40.69963,121.90312 -64.82131,246.11069 -193.21026,227.42572 z m 57.28055,-6.00261 C 321.69778,349.57612 383.86813,260.74437 366.65582,169.36286 336.092,7.0971791 119.02467,-22.7918 44.776185,125.0418 c -49.3077197,98.17488 12.60466,221.24494 121.166275,240.85557 6.23333,1.12599 12.53333,2.29676 14,2.6017 8.16095,1.6968 34.58395,0.65262 48.69128,-1.92418 z M 104.9268,312.25407 c -1.08646,-0.68969 -1.38999,-2.52966 -0.85696,-5.19481 0.96785,-4.83923 3.08243,-5.65234 14.76668,-5.6782 8.05196,-0.0178 8.24612,-0.10349 9.10594,-4.0182 l 0.87854,-4 h 9.89406 9.89406 v -4 -4 h 20.66667 c 23.80679,0 22.20812,1.3085 17.9191,-14.66667 -3.92277,-14.61104 -4.77472,-40.78391 -1.90965,-58.66667 1.23365,-7.7 2.1766,-15.5 2.09546,-17.33333 -0.0812,-1.83333 -0.22365,-4.99139 -0.31668,-7.0179 -0.093,-2.02651 0.81657,-4.77375 2.02132,-6.10498 3.38359,-3.73883 3.25794,-41.18913 -0.14288,-42.58563 -5.62544,-2.31002 -34.12986,-0.95657 -43.90848,2.08486 -17.00506,5.28906 -30.51538,7.30151 -38.09902,5.67512 -8.462285,-1.81484 -8.527635,-3.90874 0.60182,19.28186 4.33038,11 11.45887,29.21877 15.84108,40.48615 10.69456,27.49741 9.29945,25.51385 17.94484,25.51385 7.872,0 8.64028,0.76147 4.79109,4.74859 -26.56648,27.51838 -68.365905,28.42254 -96.577045,2.08906 l -6.61098,-6.17098 8.26516,-0.66667 8.26516,-0.66666 6.68257,-16 c 3.67541,-8.8 11.06161,-26.8 16.41379,-40 5.35217,-13.2 10.53407,-25.72312 11.51533,-27.82916 1.66611,-3.57588 1.54379,-4.0208 -1.84927,-6.72633 -6.71764,-5.35645 -1.65311,-22.11118 6.68364,-22.11118 4.892875,0 9.987995,5.88371 9.470345,10.93609 l -0.43003,4.19723 9.17794,-0.33167 c 10.39482,-0.37564 24.17423,-4.19281 29.08795,-8.05795 6.04856,-4.7578 14.0627,-5.8635 25.45026,-3.51133 5.59428,1.15553 10.4164,2.10096 10.71581,2.10096 0.29941,0 -0.29752,-3.64425 -1.32652,-8.09834 -2.91615,-12.62283 0.77228,-26.446051 9.34365,-35.01742 2.51894,-2.518939 2.52444,-3.304201 0.12072,-17.235943 -1.04701,-6.068382 0.93376,-8.981636 6.10677,-8.981636 5.72843,0 9.06392,5.822136 6.15584,10.745117 -3.05203,5.166666 -2.75445,12.184203 0.68064,16.05087 8.51406,9.583768 12.37528,33.442342 6.54847,40.463222 -2.14472,2.58423 -1.45963,2.58002 11.35333,-0.0698 12.04652,-2.49127 15.6193,-1.80731 30.37679,5.81529 8.00365,4.13408 10.64088,4.79256 21.46083,5.35851 l 12.33584,0.64525 -0.60226,-4.1035 c -1.12717,-7.67984 6.91079,-12.75055 14.22017,-8.97072 4.21581,2.18008 6.73352,14.73006 3.87372,19.30931 -1.11612,1.7872 0.23022,6.44647 6.21804,21.51876 4.20344,10.58071 9.34026,23.73766 11.41515,29.23766 4.67564,12.39392 14.04298,35.09677 15.95608,38.67143 1.18506,2.21431 2.81794,2.66854 9.71103,2.70139 l 8.28642,0.0395 -7.48143,6.98112 c -26.57781,24.80047 -65.80912,25.08798 -92.56468,0.67836 l -7.75144,-7.07176 8.36781,-0.66667 8.36782,-0.66666 15.64327,-38.66667 c 8.6038,-21.26667 16.65061,-41.00879 17.88179,-43.87139 2.76125,-6.42007 2.30604,-6.95847 -3.33924,-3.94948 -7.32574,3.90471 -22.87965,3.09997 -39.79057,-2.0587 -15.20957,-4.63968 -36.07362,-6.68553 -46,-4.51058 l -5.33333,1.16857 -0.77137,19.27746 c -0.69779,17.43872 -0.53535,19.58517 1.70307,22.50355 1.83682,2.39478 2.40074,5.14341 2.18842,10.66667 -0.15732,4.09231 0.7263,11.82979 1.96359,17.1944 2.85208,12.36599 2.9082,38.32031 0.11441,52.91283 -1.12319,5.86667 -2.3786,13.51667 -2.78979,17 l -0.74761,6.33334 h 20.08516 20.08516 l 0.41781,4.33333 c 0.45111,4.67871 -0.32126,4.40176 13.41781,4.81124 5.81633,0.17335 6.33334,0.46087 6.33334,3.52209 0,3.26184 0.21638,3.33334 10.08765,3.33334 12.06958,0 15.24568,1.36623 15.24568,6.55807 0,2.81113 -0.77927,4.00641 -3,4.60155 -4.54327,1.21754 -180.08263,0.95869 -182.01566,-0.26841 z M 95.235235,193.69619 c -0.0235,-22.23537 -0.52478,-37.49344 -1.19363,-36.33333 -0.63419,1.1 -5.07441,11.93896 -9.86714,24.08658 -4.79273,12.14762 -10.30649,25.64762 -12.2528,30 -1.94631,4.35238 -4.6791,10.76342 -6.07286,14.24675 l -2.53411,6.33333 h 15.98055 15.98054 z m 33.373885,37.605 c 0,-0.84504 -21.0324,-56.18479 -25.73942,-67.7247 l -3.175995,-7.78637 -0.86873,13.1197 c -0.4778,7.21584 -0.87183,24.3697 -0.87563,38.1197 l -0.007,25 h 15.333345 c 8.43333,0 15.33333,-0.32775 15.33333,-0.72833 z m 169.86476,-19.605 c 1.33323,-33.37808 1.5337,-58.33514 0.46858,-58.33421 -0.55,4.8e-4 -1,0.61276 -1,1.36061 0,0.74785 -6.66028,17.69785 -14.80061,37.66667 -8.14034,19.96881 -15.10453,37.05693 -15.47599,37.9736 -0.51701,1.27587 2.92044,1.66666 14.66024,1.66666 h 15.3356 z m 34.13525,18.93202 c 0,-0.77073 -2.31469,-6.92073 -5.14374,-13.66667 -2.82906,-6.74594 -6.42494,-15.56535 -7.99084,-19.59868 -10.04108,-25.8631 -16.51167,-42.07515 -16.98487,-42.55556 -0.30097,-0.30555 -0.54722,16.94445 -0.54722,38.33333 v 38.88889 h 15.33333 c 9.82926,0 15.33334,-0.50302 15.33334,-1.40131 z"
       id="path1" />
  </g>
</svg>
